<svg width="32" height="32" viewBox="0 0 32 32" fill="none" xmlns="http://www.w3.org/2000/svg">
<path d="M23.5086 12.7798C23.3064 12.6145 23.2988 12.608 23.4056 12.3415C23.6475 11.729 23.7681 11.0759 23.7608 10.4181C23.7608 10.4105 23.7608 10.4024 23.7608 10.3949C23.7594 10.0751 23.7258 9.7563 23.6605 9.44316C23.6326 9.28735 23.5931 9.1338 23.5423 8.98379C23.3984 8.51725 23.1859 8.07436 22.9115 7.66944C22.9028 7.65539 22.8951 7.64188 22.8859 7.62783C22.4938 7.0171 21.9554 6.51224 21.3186 6.15838C20.1708 5.47472 19.1281 5.50012 19.1281 5.50012H15.8121C15.5912 5.50307 15.3707 5.51986 15.1519 5.55038H15.1573C13.9338 5.7163 13.3792 6.66206 13.0655 7.39436L12.6187 8.43416L12.2832 9.21564C12.2828 9.2166 12.2827 9.21763 12.2829 9.21865C12.283 9.21966 12.2834 9.22063 12.284 9.22147C12.2845 9.22232 12.2853 9.22301 12.2862 9.2235C12.2871 9.22399 12.2881 9.22426 12.2892 9.22428H18.6433C19.2736 9.22428 19.8265 9.69555 19.8641 10.3198C19.874 10.4788 19.8509 10.6382 19.7964 10.7882C19.7418 10.9381 19.6569 11.0753 19.5469 11.1915C19.4369 11.3076 19.3041 11.4002 19.1566 11.4635C19.0092 11.5268 18.8502 11.5595 18.6896 11.5595H11.2765C11.2753 11.5595 11.2741 11.5598 11.2731 11.5605C11.2721 11.5612 11.2714 11.5622 11.271 11.5633L9.57189 15.4058L9.53376 15.4804C9.49424 15.5504 9.45878 15.6226 9.42753 15.6966L9.10067 16.4699L9.09523 16.4829L6.2897 23.1249C6.25048 23.213 6.21289 23.3022 6.17367 23.3913C5.87405 24.0842 5.96121 24.7284 6.44223 25.3596C6.67091 25.6676 6.9903 25.8976 7.35634 26.0179L7.39175 26.033C7.57325 26.1089 7.76446 26.1594 7.95994 26.1832C8.04628 26.1944 8.13326 26.2 8.22034 26.2C8.30886 26.2001 8.3973 26.1945 8.48509 26.1832C8.50089 26.1832 8.51778 26.1795 8.53358 26.1768C8.89906 26.1239 9.24463 25.9784 9.53684 25.7543C9.82906 25.5302 10.058 25.2351 10.2016 24.8975L10.2055 24.89L11.1806 22.5818L11.2432 22.4331L11.5897 21.6133L12.1677 20.2341C12.1791 20.2076 12.1922 20.1828 12.2047 20.1574L12.3905 19.7191L12.4112 19.6699L12.8203 18.7014L13.2338 17.7238L13.3929 17.3455C13.6168 16.8164 13.8396 16.2851 14.0613 15.7576C14.18 15.4728 14.253 15.4334 14.4807 15.4334H14.5085C15.1546 15.4474 15.8497 15.4539 16.693 15.4539C17.2471 15.4539 17.8011 15.4501 18.3551 15.4474L19.1722 15.4437C20.4328 15.4437 21.3682 16.0749 21.9538 17.3201C22.1893 17.8182 22.2945 18.3671 22.2599 18.9163C22.2252 19.4654 22.0518 19.997 21.7555 20.4622C21.4729 20.9154 21.08 21.2909 20.6129 21.5542C20.1458 21.8174 19.6195 21.9601 19.0824 21.9689H18.9309H15.2069C14.8464 21.9689 14.494 22.0748 14.194 22.2732C13.8941 22.4716 13.6601 22.7537 13.5214 23.0838L12.2292 26.1643C12.2289 26.1653 12.2288 26.1663 12.2289 26.1673C12.2291 26.1684 12.2294 26.1693 12.23 26.1702C12.2306 26.171 12.2314 26.1717 12.2323 26.1722C12.2332 26.1727 12.2342 26.173 12.2352 26.173L14.7504 26.1649L18.4068 26.153H18.4586L19.1069 26.1449C19.9698 26.1281 20.7412 25.9984 21.3949 25.7622C24.0577 24.8051 25.7197 22.8358 26.2046 20.0671C26.7139 17.1677 25.7802 14.6476 23.5086 12.7798Z" fill="#17BA83"/>
</svg>
