<svg width="32" height="32" viewBox="0 0 32 32" fill="none" xmlns="http://www.w3.org/2000/svg">
<path d="M26.6663 17.1829C28.2219 17.1829 29.4836 18.4447 29.4836 20.0003V26.6663C29.4836 28.2219 28.2219 29.4837 26.6663 29.4837H20.0002C18.4446 29.4837 17.1829 28.2219 17.1829 26.6663V20.0003C17.1829 18.4447 18.4446 17.1829 20.0002 17.1829H26.6663ZM20.0002 18.8167C19.3467 18.8167 18.8167 19.3468 18.8167 20.0003V26.6663C18.8167 27.3199 19.3467 27.8499 20.0002 27.8499H26.6663C27.3198 27.8499 27.8499 27.3199 27.8499 26.6663V20.0003C27.8499 19.3468 27.3198 18.8167 26.6663 18.8167H20.0002ZM26.0002 23.8499C26.451 23.8501 26.8165 24.2155 26.8167 24.6663C26.8167 25.1172 26.4511 25.4835 26.0002 25.4837H20.6663C20.2154 25.4835 19.8499 25.1172 19.8499 24.6663C19.85 24.2155 20.2155 23.8501 20.6663 23.8499H26.0002ZM26.0002 21.1829C26.4511 21.1831 26.8167 21.5494 26.8167 22.0003C26.8165 22.4511 26.451 22.8165 26.0002 22.8167H20.6663C20.2155 22.8165 19.85 22.4511 19.8499 22.0003C19.8499 21.5494 20.2154 21.1831 20.6663 21.1829H26.0002Z" fill="#525252" stroke="#525252" stroke-width="0.3"/>
<path d="M11.9996 17.1833C13.5551 17.1833 14.8168 18.4442 14.817 19.9997V26.6667C14.817 28.2223 13.5552 29.4831 11.9996 29.4831H5.33362C3.77802 29.4831 2.51624 28.2223 2.51624 26.6667V19.9997C2.51641 18.4442 3.77812 17.1833 5.33362 17.1833H11.9996ZM5.33362 18.817C4.68019 18.817 4.1502 19.3463 4.15002 19.9997V26.6667C4.15002 27.3202 4.68008 27.8503 5.33362 27.8503H11.9996C12.6532 27.8503 13.1832 27.3202 13.1832 26.6667V19.9997C13.1831 19.3463 12.6531 18.817 11.9996 18.817H5.33362ZM10.0367 20.8141C10.3574 20.5526 10.8305 20.5711 11.1295 20.8698L11.1862 20.9323C11.4302 21.2317 11.4303 21.6642 11.1862 21.9635L11.1295 22.0251L9.82092 23.3327L11.1295 24.6413C11.4284 24.9401 11.4474 25.4133 11.1862 25.734L11.1295 25.7965C10.8305 26.0954 10.3575 26.1139 10.0367 25.8522L9.97522 25.7965L8.66663 24.4879L7.35803 25.7965C7.03913 26.1151 6.52258 26.1152 6.20374 25.7965C5.88481 25.4776 5.88481 24.9602 6.20374 24.6413L7.51135 23.3327L6.20374 22.0251C5.88481 21.7061 5.88481 21.1887 6.20374 20.8698C6.52254 20.5513 7.03918 20.5514 7.35803 20.8698L8.66663 22.1784L9.97522 20.8698L10.0367 20.8141ZM11.9996 2.51627C13.5552 2.51627 14.817 3.77805 14.817 5.33365V11.9997C14.817 13.5553 13.5552 14.817 11.9996 14.817H5.33362C3.77802 14.817 2.51624 13.5553 2.51624 11.9997V5.33365C2.51624 3.77805 3.77802 2.51627 5.33362 2.51627H11.9996ZM26.6666 2.51627C28.2222 2.51627 29.483 3.77805 29.483 5.33365V11.9997C29.483 13.5553 28.2222 14.817 26.6666 14.817H19.9996C18.4442 14.8169 17.1832 13.5552 17.1832 11.9997V5.33365C17.1832 3.77816 18.4442 2.51644 19.9996 2.51627H26.6666ZM5.33362 4.15005C4.68008 4.15005 4.15002 4.68011 4.15002 5.33365V11.9997C4.15002 12.6532 4.68008 13.1833 5.33362 13.1833H11.9996C12.6532 13.1833 13.1832 12.6532 13.1832 11.9997V5.33365C13.1832 4.68011 12.6532 4.15005 11.9996 4.15005H5.33362ZM19.9996 4.15005C19.3462 4.15023 18.817 4.68022 18.817 5.33365V11.9997C18.817 12.6531 19.3462 13.1831 19.9996 13.1833H26.6666C27.3202 13.1833 27.8502 12.6532 27.8502 11.9997V5.33365C27.8502 4.68011 27.3202 4.15005 26.6666 4.15005H19.9996ZM8.66663 5.18326C9.11755 5.18326 9.48286 5.54878 9.48303 5.99966V7.85025H11.3336C11.7845 7.85043 12.15 8.21573 12.15 8.66666C12.15 9.11758 11.7845 9.48289 11.3336 9.48306H9.48303V11.3336C9.48286 11.7845 9.11755 12.1501 8.66663 12.1501C8.2157 12.1501 7.8504 11.7845 7.85022 11.3336V9.48306H5.99963C5.54875 9.48289 5.18323 9.11758 5.18323 8.66666C5.18323 8.21573 5.54875 7.85043 5.99963 7.85025H7.85022V5.99966C7.8504 5.54878 8.2157 5.18326 8.66663 5.18326ZM25.9996 7.85025C26.4507 7.85025 26.817 8.21562 26.817 8.66666C26.817 9.11769 26.4507 9.48306 25.9996 9.48306H20.6666C20.2156 9.48306 19.8502 9.11769 19.8502 8.66666C19.8502 8.21562 20.2156 7.85025 20.6666 7.85025H25.9996Z" fill="#525252" stroke="#525252" stroke-width="0.3"/>
</svg>
